<svg xmlns="http://www.w3.org/2000/svg">

    <symbol id="rss-icon" viewBox="0 0 448 512">
        <path d="M0 64C0 46.3 14.3 32 32 32c229.8 0 416 186.2 416 416c0 17.7-14.3 32-32 32s-32-14.3-32-32C384 253.6 226.4 96 32 96C14.3 96 0 81.7 0 64zM0 416a64 64 0 1 1 128 0A64 64 0 1 1 0 416zM32 160c159.1 0 288 128.9 288 288c0 17.7-14.3 32-32 32s-32-14.3-32-32c0-123.7-100.3-224-224-224c-17.7 0-32-14.3-32-32s14.3-32 32-32z"/>
    </symbol>

    <symbol id="facebook-icon" viewBox="0 0 320 512">
        <path d="M279.14 288l14.22-92.66h-88.91v-60.13c0-25.35 12.42-50.06 52.24-50.06h40.42V6.26S260.43 0 225.36 0c-73.22 0-121.08 44.38-121.08 124.72v70.62H22.89V288h81.39v224h100.17V288z"/>
    </symbol>

    <symbol id="twitter-icon" viewBox="0 0 512 512">
        <path d="M367.7,364.9c-3.8-19.8-24.7-26.5-41.4-27.2c-21.7-0.9-42.6,6.9-64.2,7.6c-11.4,0.4-23.5-0.8-33.6-6.8c-10.3-6.1-17.4-15.6-22.3-27c-1.7-4.1-3.2-8.3-4.4-12.6c0.4-3.1,1-6.5,2.2-9.5v-0.7c0.1-0.1,0.2-0.2,0.3-0.4c0.2-0.2,0.3-0.4,0.5-0.6c0.6-1.2,1.4-2.2,2.3-3.1h0.4c0.1-0.1,0.2-0.2,0.2-0.3c0.6,0,1.2,0,1.8-0.1c8.1-0.4,16.4-1.7,24.5-1.6c7.7,0,15.4,0.2,23.1,0.5c21.1,0.7,43.4,2.3,63.9-4.4c7.9-2.6,16.1-6.2,21.6-13c5.8-7.2,7.5-16.5,5.7-25.7c-3.8-19.8-24.7-26.5-41.4-27.2c-21.7-0.9-42.6,6.9-64.2,7.6c-11.4,0.4-23.5-0.8-33.6-6.8c-0.5-0.3-1-0.6-1.5-1h-1.3c-0.4-0.5-0.8-1-1.3-1.5c0-0.1-0.1-0.3-0.1-0.4c-0.3-0.3-0.7-0.5-1-0.8v-2.7c-0.5-1.9-0.9-3.8-1.1-5.7c1.6-13.8,1.9-27.5-2.5-40.3c-6.6-19.3-25.3-34.8-45.2-34.1c-8.2,0.3-16.3,3.1-21.6,10c-6.5,8.3-7.6,18.5-8.5,28.8c0,0,0.1,0.1,0.1,0.1c-3,16.2-0.9,33.8,0.6,50.2c-0.7,19.9-1.3,39.7-1.5,59.6c-0.3,29.1-1.6,62.1,12,88.5c10.8,21.1,29.6,36.2,51.6,41.7c13.4,3.4,27.3,3.8,41.1,3.1c8.1-0.4,16.4-1.7,24.5-1.6c7.7,0,15.4,0.2,23.1,0.5c21.1,0.7,43.4,2.3,63.9-4.4c7.9-2.6,16.1-6.2,21.6-13C367.8,383.4,369.5,374.1,367.7,364.9z"/>
    </symbol>

    <symbol id="dribble-icon" viewBox="0 0 512 512">
        <path d="M256 8C119.252 8 8 119.252 8 256s111.252 248 248 248 248-111.252 248-248S392.748 8 256 8zm163.97 114.366c29.503 36.046 47.369 81.957 47.835 131.955-6.984-1.477-77.018-15.682-147.502-6.818-5.752-14.041-11.181-26.393-18.617-41.614 78.321-31.977 113.818-77.482 118.284-83.523zM396.421 97.87c-3.81 5.427-35.697 48.286-111.021 76.519-34.712-63.776-73.185-116.168-79.04-124.008 67.176-16.193 137.966 1.27 190.061 47.489zm-230.48-33.25c5.585 7.659 43.438 60.116 78.537 122.509-99.087 26.313-186.36 25.934-195.834 25.809C62.38 147.205 106.678 92.573 165.941 64.62zM44.17 256.323c0-2.166.043-4.322.108-6.473 9.268.19 111.92 1.513 217.706-30.146 6.064 11.868 11.857 23.915 17.174 35.949-76.599 21.575-146.194 83.527-180.531 142.306C64.794 360.405 44.17 310.73 44.17 256.323zm81.807 167.113c22.127-45.233 82.178-103.622 167.579-132.756 29.74 77.283 42.039 142.053 45.189 160.638-68.112 29.013-150.015 21.053-212.768-27.882zm248.38 8.489c-2.171-12.886-13.446-74.897-41.152-151.033 66.38-10.626 124.7 6.768 131.947 9.055-9.442 58.941-43.273 109.844-90.795 141.978z"/>
    </symbol>

    <symbol id="pinterest-icon" viewBox="0 0 384 512">
        <path d="M204 6.5C101.4 6.5 0 74.9 0 185.6 0 256 39.6 296 63.6 296c9.9 0 15.6-27.6 15.6-35.4 0-9.3-23.7-29.1-23.7-67.8 0-80.4 61.2-137.4 140.4-137.4 68.1 0 118.5 38.7 118.5 109.8 0 53.1-21.3 152.7-90.3 152.7-24.9 0-46.2-18-46.2-43.8 0-37.8 26.4-74.4 26.4-113.4 0-66.2-93.9-54.2-93.9 25.8 0 16.8 2.1 35.4 9.6 50.7-13.8 59.4-42 147.9-42 209.1 0 18.9 2.7 37.5 4.5 56.4 3.4 3.8 1.7 3.4 6.9 1.5 50.4-69 48.6-82.5 71.4-172.8 12.3 23.4 44.1 36 69.3 36 106.2 0 153.9-103.5 153.9-196.8C384 71.3 298.2 6.5 204 6.5z"/>
    </symbol>
</svg>